# xmcd CD database file
#
# Track frame offsets:
#	150
#	29582
#	80017
#	104525
#	138347
#	192755
#	198332
#	245017
#
# Disc length: 3907 seconds
#
# Revision: 0
# Processed by: cddbd v1.5.2PL0 Copyright (c) Steve Scherf et al.
# Submitted via: CDex 1.51
#
DISCID=6f0f4108
DTITLE=bennink  and borstlap  and glerum - 3
DYEAR=1900
DGENRE=Jazz
TTITLE0=round midnight
TTITLE1=huub
TTITLE2=erroll
TTITLE3=take the a-train
TTITLE4=masquelero
TTITLE5=I love you so much it hurts
TTITLE6=blues on the corner
TTITLE7=BBG
EXTD=
EXTT0=
EXTT1=
EXTT2=
EXTT3=
EXTT4=
EXTT5=
EXTT6=
EXTT7=
PLAYORDER=
